# xmcd
#
# Track frame offsets:
#	150
#	17238
#	26618
#	43112
#	58851
#	76087
#	87719
#	109195
#	124051
#	142015
#	158069
#	174462
#	186370
#	202402
#	219072
#	239173
#
# Disc length: 3428 seconds
#
# Revision: 1
# Processed by: cddbd v1.5.2PL0 Copyright (c) Steve Scherf et al.
# Submitted via: audiograbber 1.83.01
#
DISCID=ec0d6210
DTITLE=Country Music Awards Australia - The Winners 2010 CD 2
DYEAR=2009
DGENRE=Country
TTITLE0=Keith Urban - Sweet Thing
TTITLE1=Adam Harvey and John Williamson - King Of The Road
TTITLE2=The McClymonts - Shotgun
TTITLE3=Liam Brew - Girls With Girlfriends
TTITLE4=Melinda Schneider and The Australian Girls Choir - Courageous
TTITLE5=Lianna Rose - Jack (New Strings)
TTITLE6=Davidson Brothers - A Showman's Life
TTITLE7=Dean Perrett - The Dust Of Kalkadoon
TTITLE8=Ronni Rae Rivers - Running On Fumes
TTITLE9=Lawrie Minson - Waiting At The Station
TTITLE10=The Bushwackers - The Good Old Days
TTITLE11=Joe Robinson - It's Not Easy
TTITLE12=The Bobkatz - The Long Haul
TTITLE13=Tracey Coster - Old Black Quart
TTITLE14=Songbirds - Sara Storer, Gina Jeffreys and Beccy Cole - You've Got A Fr
TTITLE14=iend (Live)
TTITLE15=Australian Country Music Unites - Tangerine Sky
EXTD=YEAR: 2009
EXTT0=
EXTT1=
EXTT2=
EXTT3=
EXTT4=
EXTT5=
EXTT6=
EXTT7=
EXTT8=
EXTT9=
EXTT10=
EXTT11=
EXTT12=
EXTT13=
EXTT14=
EXTT15=
PLAYORDER=
